# xmcd
#
# Track frame offsets:
#	150
#	20769
#	40789
#	59213
#	77980
#	90328
#	111474
#	132064
#	153411
#	170532
#	189234
#	206120
#	223264
#	241380
#
# Disc length: 3483 seconds
#
# Revision: 3
# Processed by: cddbd v1.5.2PL0 Copyright (c) Steve Scherf et al.
# Submitted via: EasyCDDAExtractor 2010.6.0.0
#
DISCID=ca0d990e
DTITLE=Various Artist - Emozioni In Musica-32-Per Una Donna
DYEAR=1998
DGENRE=Italiani
TTITLE0=Steve Rogers Band - Bambolina  1988
TTITLE1=Umberto Tozzi - Gloria  1979
TTITLE2=Loredana Bertè - La Donna Della Sera 1983
TTITLE3=Gianni Togni - Luna 1980
TTITLE4=Le Orme - Irene 1969
TTITLE5=Francesco De Gregori - La Casa Di Hilde 1973
TTITLE6=Ivano Fossati - La Signora Cantava Il Blues 1981
TTITLE7=Formula Tre - Bambina Sbagliata 1973
TTITLE8=Rino Gaetano - Gianna 1978
TTITLE9=Bruno Lauzzi - Mary Oh Mary 1970
TTITLE10=I Camaleonti - Se Tu Ragazza Mia 1968
TTITLE11=Gianni Morandi - La Mia Nemica Amatissima 1983
TTITLE12=Giorgio Gaber - Ipotesi Di Una Maria 1981
TTITLE13=I Cugini Di Campagna - Ale (Alessandra) 1991
EXTD=
EXTT0=
EXTT1=
EXTT2=
EXTT3=
EXTT4=
EXTT5=
EXTT6=
EXTT7=
EXTT8=
EXTT9=
EXTT10=
EXTT11=
EXTT12=
EXTT13=
PLAYORDER=
